<svg width="36" height="29" viewBox="0 0 36 29" fill="none" xmlns="http://www.w3.org/2000/svg">
<path d="M11.0321 6.3677C10.726 5.35607 10.082 4.22218 8.09067 4.22218C6.09857 4.22218 4.87278 4.65128 4.87278 6.33655C4.87278 10.2592 15.8138 7.62386 15.8138 16.0821C15.8138 20.7711 11.9215 22.4252 7.99878 22.4252C2.45158 22.4252 0 18.7175 0 15.8368C0 15.3158 0.429104 14.8867 0.950103 14.8867H3.43205C3.95305 14.8867 4.22874 15.3462 4.32063 15.7138C4.44368 16.2963 4.71859 18.5641 7.998 18.5641C10.3881 18.5641 11.3685 17.92 11.3685 16.0821C11.3685 11.8222 0.428325 14.4887 0.428325 6.33655C0.429104 2.75108 2.88068 0.361023 8.15142 0.361023C12.9315 0.361023 15.475 3.21055 15.475 6.27503C15.475 6.79603 15.0459 7.22513 14.5249 7.22513H12.0118C11.4916 7.22513 11.1855 6.94944 11.0321 6.3677Z" fill="#F6F5F5"/>
<path d="M34.4249 4.72369H32.0037C31.4827 4.72369 31.0536 5.1528 31.0536 5.6738V18.2377L23.9441 5.45886C23.7907 5.18317 23.3616 4.72369 22.8406 4.72369H19.4997C18.9787 4.72369 18.5496 5.1528 18.5496 5.6738V15.7098C18.5472 15.7083 18.5449 15.706 18.5418 15.7044C18.5418 15.7044 19.1671 22.5257 13.7632 24.1588C12.6114 24.5069 11.5811 25.1377 11.5811 26.3409C11.5811 27.5441 12.56 28.523 13.7632 28.523C18.4639 28.523 22.8118 23.8605 22.8679 19.1949C22.8679 19.1855 22.871 11.5582 22.871 11.5582L30.5014 25.0723C31.1758 26.2373 31.6353 26.1758 31.9725 26.1758H34.4241C34.9451 26.1758 35.3742 25.7467 35.3742 25.2257V5.6738C35.3742 5.1528 34.9459 4.72369 34.4249 4.72369Z" fill="#F6F5F5"/>
</svg>
